<svg width="218" height="218" viewBox="0 0 218 218" fill="none" xmlns="http://www.w3.org/2000/svg">
<circle cx="109" cy="109" r="102" fill="white" stroke="#C175A5" stroke-width="14"/>
<path d="M160.76 60.1821C160.323 58.8898 159.801 58.5497 158.986 58.2266C157.203 57.5635 154.184 58.5667 154.184 58.5667C154.184 58.5667 47.2897 97.1328 41.1829 101.401C39.868 102.319 39.4275 102.863 39.2089 103.492C38.1532 106.519 41.4422 107.863 41.4422 107.863L68.9939 116.875C68.9939 116.875 70.0207 117.028 70.3867 116.79C76.6545 112.811 133.447 76.8295 136.723 75.6222C137.239 75.4691 137.622 75.6392 137.521 75.9963C136.209 80.6215 86.8821 124.612 86.8821 124.612C86.8821 124.612 86.6941 124.85 86.5755 125.122L86.5111 125.088L83.9406 152.516C83.9406 152.516 82.8629 160.916 91.2352 152.516C97.142 146.582 102.857 141.616 105.718 139.219C115.191 145.782 125.387 153.043 129.787 156.835C131.997 158.74 133.845 159.046 135.367 158.995C139.544 158.842 140.71 154.234 140.71 154.234C140.71 154.234 160.189 75.5542 160.84 65.0114C160.904 63.9741 160.992 63.328 160.999 62.6138C161.011 61.6275 160.919 60.6413 160.76 60.1821Z" fill="#864A70"/>
</svg>
